<?xml version="1.0" encoding="UTF-8"?>
<svg id="Layer_2" data-name="Layer 2" xmlns="http://www.w3.org/2000/svg" viewBox="0 0 130.38 36.59">
  <g id="Layer_1-2" data-name="Layer 1">
    <path d="M13.81,7.68h-5.06v-.68c0-.61.17-1.08.49-1.41s.8-.5,1.41-.5h2.85V0h-2.7c-2.79,0-4.89.6-6.31,1.81s-2.13,3.04-2.13,5.5v.38H0v5.02h2.36v15.52h6.39v-15.52h5.06v-5.02ZM87.73,9.97c-.59-.93-1.33-1.67-2.22-2.23-1.21-.75-2.66-1.12-4.35-1.12-1.47,0-2.8.27-3.99.82-1.19.55-2.21,1.31-3.04,2.28-.84.98-1.48,2.12-1.92,3.42-.44,1.31-.67,2.72-.67,4.24v-1.18c0-3.27-.65-5.7-1.96-7.28-1.31-1.58-3.15-2.38-5.53-2.38h-.3c-1.57,0-2.91.36-4.01,1.07s-1.93,1.78-2.49,3.21c-.22.58-.39,1.23-.53,1.93v-5.53h-6.92v12.28c0,.99-.29,1.78-.87,2.36-.58.58-1.34.88-2.28.88s-1.69-.29-2.24-.88c-.56-.58-.84-1.34-.84-2.28V7.23h-6.92v10.12c0-1.52-.27-2.94-.82-4.26-.55-1.32-1.33-2.47-2.34-3.46-1.01-.99-2.24-1.76-3.67-2.32-1.43-.56-3.05-.84-4.85-.84s-3.38.28-4.83.84c-1.45.56-2.68,1.33-3.69,2.32-1.01.99-1.79,2.14-2.34,3.46s-.82,2.74-.82,4.26v.91c0,1.47.26,2.85.78,4.15s1.28,2.43,2.28,3.42c1,.99,2.22,1.76,3.67,2.32s3.09.84,4.94.84,3.5-.28,4.94-.84,2.67-1.33,3.67-2.32c1-.99,1.76-2.13,2.28-3.42s.78-2.67.78-4.15v1.14c0,3.22.65,5.61,1.96,7.17,1.3,1.56,3.15,2.34,5.53,2.34h.3c1.57,0,2.89-.34,3.96-1.03,1.07-.68,1.87-1.73,2.42-3.14.18-.45.31-.96.43-1.49v4.97h6.92v-12.13c0-1.01.3-1.83.89-2.45.6-.62,1.39-.93,2.38-.93s1.77.31,2.34.93c.57.62.86,1.41.86,2.38v12.21h6.92v-9.93c0,1.52.23,2.93.7,4.22.47,1.29,1.14,2.42,2.02,3.37.87.95,1.91,1.69,3.12,2.22,1.2.53,2.54.8,4.01.8,1.72,0,3.21-.37,4.47-1.12,1.25-.75,2.24-1.81,2.95-3.19.14-.28.26-.58.38-.88v4.51h5.48V.46h-6.92v9.51ZM29.17,20.59c-.35.82-.88,1.46-1.58,1.92-.7.46-1.58.68-2.64.68s-1.92-.23-2.62-.68c-.71-.46-1.24-1.1-1.6-1.92-.36-.82-.53-1.76-.53-2.79,0-1.09.18-2.05.55-2.87.37-.82.91-1.48,1.62-1.96.71-.48,1.57-.72,2.59-.72s1.88.24,2.59.72c.71.48,1.25,1.13,1.62,1.96.37.82.55,1.78.55,2.87s-.18,1.97-.53,2.79ZM87.88,18.29c0,1.04-.22,1.93-.65,2.66-.43.74-1,1.29-1.69,1.67-.7.38-1.46.57-2.3.57-.91,0-1.73-.22-2.45-.67-.72-.44-1.29-1.06-1.71-1.86-.42-.8-.63-1.74-.63-2.83s.21-2.05.63-2.87c.42-.82.99-1.47,1.71-1.94.72-.47,1.54-.7,2.45-.7.81,0,1.56.18,2.26.55.7.37,1.27.89,1.71,1.58.44.68.67,1.53.67,2.55v1.29ZM123.84,7.23l-3.39,15.21h-.69l-4.25-15.21h-7.49c-2.31,0-4.08.53-5.31,2.21-.99,1.35-1.58,3.12-1.77,5.29v-7.5h-5.48v20.99h6.92v-10.5c0-1.57.42-2.78,1.27-3.61.85-.84,2.05-1.25,3.59-1.25h1.6v-4.73l5.86,19.64h4.55l-.14.65c-.13.61-.32,1.08-.57,1.43-.25.34-.58.59-.99.74-.41.15-.9.23-1.48.23h-4.83v5.78h4.07c2,0,3.63-.21,4.89-.63s2.24-1.13,2.97-2.13c.72-1,1.29-2.36,1.69-4.09l5.51-22.51h-6.54Z"/>
  </g>
</svg>