<?xml version="1.0" encoding="UTF-8"?>
<svg id="Layer_2" data-name="Layer 2" xmlns="http://www.w3.org/2000/svg" viewBox="0 0 149.63 124.17">
  <g id="Layer_1-2" data-name="Layer 1">
    <g>
      <path d="M102.93.07c-10.01,0-19.29,3.17-26.89,8.56-.39.27-.76.56-1.14.84-.38-.29-.75-.57-1.14-.84C65.91,3.02,56.53,0,46.69,0c-12.47,0-24.2,4.85-33.02,13.67C4.86,22.49,0,34.22,0,46.69s4.86,24.2,13.68,33.02c8.82,8.82,20.54,13.68,33.02,13.68,9.84,0,19.21-3.02,27.06-8.63.39-.27.76-.56,1.14-.85.38.28.75.57,1.14.85,7.6,5.39,16.89,8.56,26.9,8.56,12.86,0,24.51-5.23,32.95-13.67,8.44-8.44,13.67-20.1,13.67-32.95C149.55,20.99,128.64.07,102.93.07ZM78.79,10.76c2.91-1.96,6.05-3.57,9.4-4.79.47-.17.84.42.5.77-1.96,2.02-3.78,4.47-5.42,7.33-.05.09-.1.18-.15.27-.06.1-.12.2-.19.3-.33.47-.8.82-1.34,1.04-.31-.35-.62-.7-.94-1.04-.31-.33-.62-.65-.94-.97-.7-.7-1.43-1.37-2.17-2.02.42-.3.83-.6,1.26-.89ZM73.21,80.16c-.89.71-1.81,1.38-2.76,2.01-6.79,4.56-14.96,7.22-23.76,7.22-23.59,0-42.71-19.12-42.71-42.71S23.11,3.99,46.69,3.99c8.79,0,16.97,2.66,23.76,7.22.95.64,1.87,1.31,2.76,2.02,1.34,1.06,2.61,2.2,3.81,3.42,1.48,1.49,2.85,3.1,4.1,4.79,2.57,3.49,4.62,7.39,6.03,11.57.36,1.06.67,2.13.95,3.22.84,3.35,1.29,6.85,1.29,10.46s-.45,7.11-1.29,10.46c-.27,1.1-.59,2.17-.95,3.23-1.41,4.19-3.46,8.08-6.03,11.57-1.25,1.7-2.62,3.3-4.1,4.79-1.2,1.22-2.47,2.36-3.81,3.42ZM88.66,87.57c-3.51-1.23-6.83-2.9-9.86-4.95-.43-.29-.85-.58-1.26-.88.74-.65,1.47-1.32,2.18-2.03.32-.32.63-.64.93-.96.33-.34.64-.69.95-1.05.53.23.98.59,1.33,1.05.1.13.19.26.27.4.03.05.06.11.09.17,1.74,3.02,3.67,5.59,5.76,7.66.27.27,0,.73-.37.6ZM101.27,88.41c0,.79-.75,1.38-1.53,1.2-4.1-.99-7.98-3.88-11.31-8.42-.41-.56.09-1.32.77-1.16,3.33.77,6.81,1.26,10.41,1.45.93.05,1.66.82,1.66,1.75v5.19ZM101.27,76.17c0,1.12-.95,2.02-2.07,1.95-4.51-.28-8.82-1.07-12.84-2.28-.24-.07-.47-.17-.69-.29-.54-.31-.98-.77-1.27-1.32,3.03-4.13,5.34-8.7,6.85-13.54.02-.05.03-.1.04-.15.74.06,1.49.11,2.23.15,1.86.12,3.73.2,5.6.24,1.19.03,2.13,1,2.13,2.19v13.06ZM101.27,55.54c0,1.16-.96,2.1-2.12,2.07-1.59-.04-3.17-.1-4.73-.18-.76-.04-1.5-.09-2.25-.14.8-3.43,1.2-6.98,1.2-10.59s-.41-7.16-1.21-10.6c.74-.05,1.49-.1,2.25-.14,1.53-.08,3.1-.14,4.71-.18,1.17-.03,2.13.91,2.13,2.08v17.68ZM101.27,30.49c0,1.06-.84,1.93-1.9,1.96-1.95.05-3.9.13-5.83.25-.75.04-1.49.09-2.23.15-.02-.05-.03-.1-.04-.15-1.51-4.84-3.82-9.41-6.85-13.54.3-.56.74-1.02,1.27-1.33.22-.12.46-.23.71-.3,4.02-1.22,8.34-2,12.86-2.28,1.1-.07,2.03.81,2.03,1.91v13.33ZM101.27,9.94c0,1.05-.82,1.92-1.87,1.98-3.51.2-6.9.69-10.15,1.43-.69.16-1.2-.62-.78-1.2,3.19-4.34,6.89-7.17,10.8-8.26,1.01-.28,2.01.46,2.01,1.5v4.54ZM143.29,39.27c-3.09-1.62-7.17-2.96-11.84-4.01-1.18-.26-2.09-1.21-2.3-2.4-.7-3.89-1.7-7.6-2.97-11.04-.29-.78.52-1.5,1.27-1.13,8.22,4.12,14.39,10.27,17.16,17.43.31.8-.55,1.55-1.31,1.16ZM117.67,5.97c9.36,3.4,17.24,9.95,22.32,18.35.27.45-.3.93-.69.57-4.06-3.79-9.17-6.93-14.98-9.19-.67-.26-1.23-.74-1.58-1.37-.05-.09-.1-.18-.15-.27-1.64-2.86-3.46-5.31-5.42-7.33-.35-.35.03-.94.5-.77ZM104.59,5.4c0-1.04,1-1.78,2.01-1.5,3.91,1.09,7.61,3.92,10.8,8.26.42.57-.1,1.35-.79,1.2-3.25-.75-6.65-1.24-10.15-1.43-1.05-.06-1.88-.93-1.88-1.98v-4.54ZM104.59,17.16c0-1.1.93-1.98,2.03-1.91,4.52.27,8.83,1.06,12.86,2.28.92.28,1.69.94,2.09,1.82,1.68,3.66,3,7.72,3.91,12.06.29,1.35-.84,2.57-2.21,2.38-5.33-.75-11.05-1.2-16.77-1.33-1.06-.02-1.9-.89-1.9-1.96v-13.33ZM104.59,37.86c0-1.17.97-2.11,2.13-2.08,6.7.16,12.69.71,17.85,1.53,1.15.18,2.03,1.12,2.14,2.28.22,2.33.33,4.7.33,7.11s-.12,4.81-.33,7.15c-.11,1.14-.97,2.06-2.1,2.24-5.46.86-11.53,1.38-17.89,1.53-1.16.03-2.12-.9-2.12-2.07v-17.68ZM104.59,63.11c0-1.19.94-2.16,2.13-2.19,5.95-.15,11.9-.63,17.39-1.45.94-.14,1.73.69,1.55,1.63-.92,4.67-2.31,9.04-4.1,12.95-.4.86-1.15,1.51-2.06,1.79-4.01,1.22-8.32,2-12.84,2.28-1.12.07-2.07-.83-2.07-1.95v-13.06ZM106.12,89.61c-.78.19-1.53-.4-1.53-1.2v-5.19c0-.93.73-1.7,1.66-1.75,3.6-.19,7.08-.69,10.41-1.45.67-.16,1.18.61.77,1.16-3.33,4.55-7.21,7.44-11.31,8.42ZM140.13,68.83c-5.17,8.66-13.27,15.37-22.93,18.75-.37.13-.65-.33-.37-.6,2.09-2.08,4.02-4.65,5.76-7.66.03-.06.06-.12.09-.17.38-.67.97-1.21,1.69-1.49,5.87-2.28,11.02-5.48,15.11-9.34.35-.33.9.1.65.51ZM144.64,55.16c-2.7,7.05-8.66,13.09-16.63,17.24-.93.49-1.98-.43-1.63-1.43,1.17-3.27,2.09-6.77,2.75-10.42.22-1.21,1.14-2.16,2.34-2.43,4.71-1.06,8.81-2.42,11.91-4.06.73-.38,1.55.34,1.26,1.1ZM134.27,54.02c-.63.18-1.28.35-1.94.51-1.18.29-2.29-.65-2.2-1.86.15-1.96.23-3.96.23-5.98s-.08-3.94-.22-5.88c-.09-1.25,1.06-2.23,2.28-1.92,8.88,2.24,13.82,5.29,13.82,7.8,0,1.92-3.14,4.85-11.96,7.33ZM23.12,15.21c-.18.13-.35.27-.53.41-.96.75-1.89,1.54-2.78,2.38-.61.57-1.2,1.16-1.77,1.77-.84.89-1.63,1.82-2.38,2.78-.35.45-.69.9-1.02,1.36-.94,1.32-1.8,2.7-2.57,4.14-.19.35-.37.7-.55,1.06-.51,1-.96,2.03-1.38,3.08-.53,1.34-1,2.73-1.37,4.14-.37,1.35-.67,2.74-.89,4.14-.22,1.36-.36,2.74-.43,4.14-.04.69-.06,1.38-.06,2.07s.02,1.38.06,2.07c.07,1.4.22,2.79.43,4.14.22,1.41.52,2.79.89,4.14.38,1.41.84,2.8,1.37,4.14.41,1.05.88,2.08,1.38,3.09.18.36.36.71.55,1.06.77,1.44,1.63,2.82,2.57,4.14.33.46.67.92,1.02,1.37.75.96,1.54,1.89,2.38,2.78.57.61,1.16,1.2,1.77,1.77.88.84,1.81,1.63,2.77,2.38.18.14.36.28.54.41.34.26.83.02.83-.41h0v-4.22c-1.47-1.24-2.83-2.61-4.07-4.07h-.07v-.08c-1.08-1.28-2.07-2.63-2.96-4.06-.42-.67-.82-1.35-1.19-2.05-.37-.69-.71-1.38-1.04-2.1-.61-1.33-1.13-2.72-1.57-4.14-.41-1.35-.75-2.73-1-4.14-.24-1.35-.41-2.74-.49-4.14h-.05v-1.46c0-.2,0-.4,0-.61s0-.41,0-.61v-1.47h.05c.08-1.41.25-2.79.49-4.14.23-1.28.53-2.55.89-3.78.06-.22.27-.37.5-.37h2.21s3.63,0,3.63,0c.28,0,.51-.23.51-.51v-3.11c0-.28-.23-.51-.51-.51h-3.86c-.38,0-.63-.4-.46-.74.22-.45.45-.9.69-1.35.37-.7.77-1.38,1.19-2.05.88-1.42,1.87-2.78,2.95-4.05v-.09h.07c1.24-1.47,2.6-2.83,4.07-4.07v-4.22h0c0-.43-.49-.67-.83-.41ZM65.38,76.57V13.17c0-.72-.41-1.38-1.06-1.7-1-.51-2.03-.97-3.08-1.38-1.35-.53-2.73-1-4.14-1.37-1.35-.37-2.73-.67-4.14-.89-.55-.09-1.11-.17-1.67-.23-1.32-.15-2.47.88-2.47,2.2v1.68s0,.06,0,.06v71.83c0,1.45,1.26,2.58,2.7,2.4.48-.06.97-.13,1.44-.2,1.41-.22,2.79-.52,4.14-.89,1.41-.38,2.8-.84,4.14-1.37,1.05-.42,2.08-.88,3.09-1.39h.01c.64-.32,1.04-.97,1.04-1.68v-2.46s0-1.19,0-1.19ZM61.23,78.46c0,.2-.12.39-.31.47-1.24.55-2.52,1.02-3.84,1.43-1.15.35-2.33.65-3.53.89-.32.06-.61-.18-.61-.51v-2.98s0-4.14,0-4.14V12.64c0-.32.29-.57.61-.51,1.2.24,2.38.53,3.53.89,1.24.38,2.46.83,3.64,1.34.31.13.51.44.51.78v.48s0,4.14,0,4.14v58.7ZM81.95,64.28c.51-1,.97-2.04,1.38-3.09.53-1.34,1-2.73,1.37-4.14.37-1.35.67-2.74.89-4.14.14-.89.26-1.8.34-2.71.07-.77-.54-1.43-1.31-1.43h-6.3c-.28,0-.51.23-.51.51v3.12c0,.28.23.51.51.51h2.46c.32,0,.57.29.51.61-.24,1.2-.53,2.38-.89,3.53-.44,1.42-.96,2.81-1.57,4.14-.32.71-.67,1.41-1.03,2.09-.37.7-.77,1.38-1.19,2.05-.88,1.42-1.87,2.78-2.95,4.05v.09h-.07s.05-.06.07-.09V24s-.05-.06-.08-.09h.08v.09c1.08,1.28,2.07,2.63,2.95,4.05.42.67.82,1.35,1.19,2.06.37.68.71,1.38,1.03,2.09.55,1.22,1.04,2.49,1.45,3.78.07.21.26.36.49.36h1.17s2.08,0,2.08,0c.34,0,.59-.33.5-.65-.34-1.19-.74-2.35-1.19-3.49-.42-1.05-.88-2.08-1.38-3.08-.18-.36-.36-.71-.55-1.06-.77-1.44-1.63-2.82-2.57-4.14-.33-.46-.67-.92-1.02-1.36-.75-.96-1.54-1.89-2.38-2.78-.57-.61-1.16-1.2-1.77-1.77-.89-.84-1.82-1.63-2.78-2.38-.18-.14-.35-.28-.53-.41-.34-.26-.83-.02-.83.41h0v62.15h0c0,.43.49.67.83.42.18-.14.36-.28.54-.42.96-.75,1.88-1.54,2.77-2.38.61-.57,1.2-1.16,1.77-1.77.84-.89,1.63-1.81,2.38-2.78.35-.45.69-.9,1.02-1.37.94-1.32,1.8-2.7,2.57-4.14.19-.35.37-.7.55-1.06ZM41.05,7.74c-.18.03-.35.05-.53.08-1.41.22-2.79.52-4.14.89-1.41.38-2.8.84-4.14,1.37-1.05.41-2.08.88-3.09,1.38-.65.32-1.06.97-1.06,1.69v19.02c0,2.29,1.85,4.14,4.14,4.14h7.77c.28,0,.51.23.51.51v43.9c0,.32-.29.57-.61.51-1.2-.24-2.38-.53-3.53-.89-1.31-.4-2.59-.88-3.83-1.43-.19-.08-.31-.27-.31-.47v-29.19c0-.28-.23-.51-.51-.51h-3.12c-.28,0-.51.23-.51.51v30.94c0,.72.41,1.37,1.05,1.69h0c1.01.51,2.04.97,3.1,1.39,1.34.53,2.73,1,4.14,1.37,1.35.37,2.74.67,4.14.89.14.02.28.04.42.06,1.96.29,3.73-1.24,3.73-3.22v-46.67c0-1.95-1.58-3.54-3.54-3.54h-7.86c-.57,0-1.03-.46-1.03-1.03v-15.54h0c0-.64.39-1.21.98-1.46,1.03-.43,2.08-.81,3.16-1.14,1-.31,2.03-.57,3.07-.79.55-.12,1.07.3,1.07.87v14.44c0,.28.23.51.51.51h3.12c.28,0,.51-.23.51-.51V10.87c0-1.93-1.71-3.41-3.62-3.13Z"/>
      <g>
        <path d="M9.93,123.65v-18.83h4.8v18.83h-4.8ZM14.21,108.74v-3.92h7.27v3.92h-7.27ZM14.21,116.35v-3.92h6.99v3.92h-6.99Z"/>
        <path d="M26.33,123.65v-5.11h5.06v5.11h-5.06Z"/>
        <path d="M51.2,124.17c-1.75,0-3.23-.27-4.42-.82-1.2-.55-2.1-1.3-2.71-2.26-.61-.95-.92-2.05-.92-3.29h4.64c0,.45.12.86.37,1.23s.62.66,1.12.86c.5.21,1.14.31,1.91.31.67,0,1.24-.09,1.72-.26.47-.17.83-.41,1.08-.72s.37-.68.37-1.11c0-.55-.23-.98-.7-1.28-.46-.3-1.25-.49-2.35-.58l-1.21-.1c-1.94-.17-3.49-.78-4.64-1.83-1.15-1.05-1.73-2.44-1.73-4.18,0-1.24.29-2.3.86-3.17.58-.88,1.39-1.55,2.44-2.01,1.05-.46,2.29-.7,3.71-.7,1.55,0,2.86.26,3.93.77,1.07.52,1.9,1.24,2.46,2.18s.85,2.02.85,3.26h-4.64c0-.41-.1-.79-.31-1.13-.21-.34-.5-.61-.89-.81-.39-.2-.86-.3-1.41-.3-.52,0-.95.08-1.3.24-.35.16-.62.39-.8.68-.18.29-.27.62-.27.98,0,.48.16.9.49,1.24.33.34.89.55,1.7.62l1.21.1c1.41.12,2.66.43,3.74.92,1.08.49,1.93,1.16,2.55,2s.93,1.87.93,3.1-.31,2.29-.94,3.2c-.63.91-1.52,1.62-2.68,2.12s-2.56.75-4.19.75Z"/>
        <path d="M63.55,123.65v-5.11h5.06v5.11h-5.06Z"/>
        <path d="M81.87,123.76v-19.09h4.8v19.09h-4.8ZM86.15,123.76v-4.49h3.1c.81,0,1.53-.12,2.18-.35.64-.23,1.19-.57,1.64-1.01.45-.44.79-.97,1.03-1.6.24-.63.36-1.34.36-2.13s-.12-1.55-.36-2.18c-.24-.63-.58-1.15-1.03-1.57-.45-.42-.99-.74-1.64-.95-.64-.22-1.37-.32-2.18-.32h-3.1v-4.49h2.89c1.7,0,3.19.24,4.48.72,1.28.48,2.35,1.15,3.21,2,.86.85,1.5,1.84,1.93,2.95s.64,2.3.64,3.56v.57c0,1.15-.21,2.28-.64,3.39s-1.07,2.11-1.93,2.99c-.86.89-1.93,1.59-3.21,2.12-1.28.53-2.77.79-4.48.79h-2.89Z"/>
        <path d="M103.79,123.65v-5.11h5.06v5.11h-5.06Z"/>
        <path d="M130.33,124.17c-1.77,0-3.29-.3-4.57-.89-1.27-.59-2.31-1.37-3.12-2.34-.81-.96-1.4-2.01-1.78-3.15-.38-1.13-.57-2.24-.57-3.33v-.57c0-1.17.2-2.33.59-3.47s.99-2.18,1.79-3.11,1.8-1.67,3.01-2.23c1.2-.56,2.61-.84,4.23-.84,1.74,0,3.27.32,4.6.95,1.33.64,2.4,1.52,3.21,2.64.81,1.13,1.28,2.43,1.42,3.91h-4.8c-.1-.57-.35-1.08-.75-1.53-.4-.46-.91-.82-1.53-1.08-.63-.27-1.35-.4-2.15-.4s-1.46.13-2.05.4c-.59.27-1.09.64-1.5,1.13-.4.49-.71,1.07-.92,1.74-.21.67-.31,1.4-.31,2.19s.11,1.53.34,2.21c.22.68.55,1.27.98,1.78.43.51.97.9,1.62,1.17.65.28,1.4.41,2.24.41,1.07,0,1.99-.22,2.76-.67.77-.45,1.32-1.04,1.62-1.78l-.36,2.84v-4.1h4.38v3.87c-.79,1.36-1.91,2.4-3.37,3.13-1.45.73-3.13,1.1-5.04,1.1ZM129.82,117v-3.35h10.47v3.35h-10.47Z"/>
        <path d="M144.57,123.65v-5.11h5.06v5.11h-5.06Z"/>
      </g>
    </g>
  </g>
</svg>